<svg xmlns="http://www.w3.org/2000/svg" width="155.345" height="60.251" viewBox="0 0 155.345 60.251">
  <g id="Grupo_19" data-name="Grupo 19" transform="translate(-242 601)">
    <g id="Recurso_2" data-name="Recurso 2" transform="translate(242 -601)">
      <g id="Grupo_15" data-name="Grupo 15" transform="translate(0 35.668)">
        <path id="Trazado_247" data-name="Trazado 247" d="M2.968,120.277l-1.779,1.969V127.2H.3V112.432h.889v8.449l7.4-8.449,1.175-.032-6.193,7.051,6.066,7.686H8.558Z" transform="translate(-0.3 -112.368)" fill="#1e2831"/>
        <path id="Trazado_248" data-name="Trazado 248" d="M46.446,123.775l-1.4,3.494H44L50.225,112.5l6.257,14.769H55.4l-1.461-3.494Zm.318-.826h6.829l-3.4-8.067Z" transform="translate(-30.12 -112.436)" fill="#1e2831"/>
        <path id="Trazado_249" data-name="Trazado 249" d="M89.562,127.369,83.4,112.6h.826L89.5,125.146l4.732-11.117L98.9,125.146l5.336-12.546h.826L98.9,127.369l-4.669-11.307Z" transform="translate(-57.006 -112.505)" fill="#1e2831"/>
        <path id="Trazado_250" data-name="Trazado 250" d="M154.346,123.775l-1.4,3.494H151.9l6.225-14.769,6.257,14.769H163.3l-1.461-3.494Zm.349-.826h6.829l-3.43-8.067Z" transform="translate(-103.75 -112.436)" fill="#1e2831"/>
        <path id="Trazado_251" data-name="Trazado 251" d="M215.079,127.269V120.6h-8.322v6.67H205.9V112.5h.858v7.242h8.322V112.5h.889v14.769Z" transform="translate(-140.599 -112.436)" fill="#1e2831"/>
        <path id="Trazado_252" data-name="Trazado 252" d="M258.257,127.406,252,112.7h.921l5.336,12.546,5.368-12.546h.889Z" transform="translate(-172.057 -112.573)" fill="#1e2831"/>
        <path id="Trazado_253" data-name="Trazado 253" d="M306.894,112.3v14.769H306.1V112.3Z" transform="translate(-208.974 -112.3)" fill="#1e2831"/>
        <path id="Trazado_254" data-name="Trazado 254" d="M323.921,112.7v13.911h6.765v.826H323V112.7Z" transform="translate(-220.506 -112.573)" fill="#1e2831"/>
        <path id="Trazado_255" data-name="Trazado 255" d="M362.421,112.7v13.911h6.765v.826H361.5V112.7Z" transform="translate(-246.778 -112.573)" fill="#1e2831"/>
        <path id="Trazado_256" data-name="Trazado 256" d="M402.346,123.775l-1.4,3.494H399.9l6.225-14.769,6.257,14.769H411.3l-1.461-3.494Zm.349-.826h6.829l-3.4-8.067Z" transform="translate(-272.981 -112.436)" fill="#1e2831"/>
        <path id="Trazado_257" data-name="Trazado 257" d="M451.1,125.241l.476-.635c1.27,1.969,4.129,1.969,4.129,1.969a3.269,3.269,0,0,0,3.4-3.4c0-3.144-3.748-3.144-4.447-3.3-1.334-.222-3.653-.889-3.653-3.462a3.9,3.9,0,0,1,4.034-3.811,5.033,5.033,0,0,1,3.367,1.239l-.413.731a4.521,4.521,0,0,0-2.922-1.175,3.12,3.12,0,0,0-3.271,3.017c0,1.493,1.334,2.509,2.922,2.668,2.287.222,5.209,1.08,5.209,4.192a4.15,4.15,0,0,1-4.224,4.065S452.493,127.337,451.1,125.241Z" transform="translate(-307.851 -112.505)" fill="#1e2831"/>
      </g>
      <g id="Grupo_16" data-name="Grupo 16" transform="translate(152.804 34.398)">
        <path id="Trazado_258" data-name="Trazado 258" d="M483.941,109.57a1.271,1.271,0,1,1-1.271-1.27A1.3,1.3,0,0,1,483.941,109.57Zm-.254,0a1.049,1.049,0,1,0-1.048,1.08A1.045,1.045,0,0,0,483.687,109.57Zm-.413.572c.032.064,0,.1-.063.1h-.254c-.032,0-.1-.032-.1-.064l-.191-.254h-.1v.222a.084.084,0,0,1-.1.1h-.254a.084.084,0,0,1-.1-.1V109a.084.084,0,0,1,.1-.1h.54a.491.491,0,0,1,.508.445.472.472,0,0,1-.191.413Zm-.7-.826v.254h.1c.1,0,.159-.032.159-.127s-.064-.127-.159-.127Z" transform="translate(-481.4 -108.3)" fill="#caa14c"/>
      </g>
      <g id="Grupo_17" data-name="Grupo 17" transform="translate(60.347)">
        <path id="Trazado_259" data-name="Trazado 259" d="M200.559,24.139l-7.273-7.273-.858.858,9.306,9.306.858-.858-2.033-2.033Zm6.225,6.257-.858-.858-.858.858.858.858Zm-13.53-16.008.858-.858-.858-.858-.858.858Zm11.434,13.88-.858-.858-.858.858.858.858Zm2.477-25.314.858.858.858-.858-.858-.858Zm.858,5.082,1.239,1.239-3.367,3.367-3.367-3.367,4.256-4.193-.858-.858-5.082,5.082,5.082,5.082,5.082-5.082-2.986-2.986-.858.858Zm10.545,8.83-.858.858.858.858.858-.858Zm-11.4,11.4.858.858,9.306-9.306-.858-.858Zm13.53-13.5-.858.858.858.858.858-.858Zm-2.128-.381.858-.858-9.306-9.306-.858.858ZM205.069.858l.858.858.858-.858L205.927,0Zm-.381,2.1L203.83,2.1l-9.465,9.465.858.858Zm-13.53,13.53.858-.858-.858-.858-.858.858Z" transform="translate(-190.3)" fill="#caa14c" fill-rule="evenodd"/>
        <path id="Trazado_260" data-name="Trazado 260" d="M249.721,40.378l-1.239,1.27-3.367-3.367,3.367-3.367,4.224,4.224.858-.858L248.482,33.2,243.4,38.282l5.082,5.082,2.986-2.986-.889-.858Z" transform="translate(-226.535 -22.655)" fill="#caa14c" fill-rule="evenodd"/>
        <path id="Trazado_261" data-name="Trazado 261" d="M226.454,59.421l-1.239-1.239,3.367-3.335,3.335,3.335-4.193,4.224.858.858,5.082-5.082L228.582,53.1,223.5,58.182l2.954,2.986.889-.858Z" transform="translate(-212.955 -36.235)" fill="#caa14c" fill-rule="evenodd"/>
        <path id="Trazado_262" data-name="Trazado 262" d="M207.411,36.154l1.27-1.239,3.335,3.367-3.335,3.367-4.224-4.224-.858.858,5.082,5.082,5.05-5.082-5.05-5.082L205.7,36.186l.858.858Z" transform="translate(-199.376 -22.655)" fill="#caa14c" fill-rule="evenodd"/>
      </g>
      <g id="Grupo_18" data-name="Grupo 18" transform="translate(41.258 54.725)">
        <path id="Trazado_263" data-name="Trazado 263" d="M132.55,176.575v.159a.116.116,0,0,1-.127.127h-2.1a.116.116,0,0,1-.127-.127v-3.907a.116.116,0,0,1,.127-.127h.191a.116.116,0,0,1,.127.127v3.653h1.779C132.519,176.448,132.55,176.511,132.55,176.575Z" transform="translate(-130.2 -172.573)" fill="#caa14c"/>
        <path id="Trazado_264" data-name="Trazado 264" d="M146.85,176.527v2.732a.116.116,0,0,1-.127.127h-.159a.116.116,0,0,1-.127-.127v-.286a1.04,1.04,0,0,1-.921.476,1.029,1.029,0,0,1-1.016-1.112v-1.81a.116.116,0,0,1,.127-.127h.159a.116.116,0,0,1,.127.127v1.81a.66.66,0,0,0,.7.73c.413,0,.826-.254.826-.985v-1.556a.116.116,0,0,1,.127-.127h.159A.137.137,0,0,1,146.85,176.527Z" transform="translate(-139.958 -175.098)" fill="#caa14c"/>
        <path id="Trazado_265" data-name="Trazado 265" d="M161.625,179.522h-.159a.165.165,0,0,1-.127-.064l-.731-1.143-.73,1.143a.127.127,0,0,1-.127.064h-.159c-.1,0-.127-.064-.064-.127l.921-1.4-.826-1.27c-.064-.064-.032-.127.064-.127h.159a.165.165,0,0,1,.127.064l.667,1.016.667-1.016a.127.127,0,0,1,.127-.064h.159c.1,0,.127.064.064.127l-.826,1.27.921,1.4A.116.116,0,0,1,161.625,179.522Z" transform="translate(-150.191 -175.234)" fill="#caa14c"/>
        <path id="Trazado_266" data-name="Trazado 266" d="M176.15,176.527v2.732a.116.116,0,0,1-.127.127h-.159a.116.116,0,0,1-.127-.127v-.286a1.04,1.04,0,0,1-.921.476,1.029,1.029,0,0,1-1.016-1.112v-1.81a.116.116,0,0,1,.127-.127h.159a.116.116,0,0,1,.127.127v1.81a.66.66,0,0,0,.7.73c.413,0,.826-.254.826-.985v-1.556a.116.116,0,0,1,.127-.127h.159A.137.137,0,0,1,176.15,176.527Z" transform="translate(-159.952 -175.098)" fill="#caa14c"/>
        <path id="Trazado_267" data-name="Trazado 267" d="M190.634,176.427v.127c0,.064-.032.127-.064.127a.873.873,0,0,0-.858.985v1.525a.116.116,0,0,1-.127.127h-.159a.116.116,0,0,1-.127-.127v-2.731a.116.116,0,0,1,.127-.127h.159a.116.116,0,0,1,.127.127v.349a.991.991,0,0,1,.826-.508C190.6,176.3,190.634,176.332,190.634,176.427Z" transform="translate(-170.529 -175.03)" fill="#caa14c"/>
        <path id="Trazado_268" data-name="Trazado 268" d="M202.161,176.4h.159c.1,0,.127.064.1.127l-1.4,3.907c-.032.064-.064.1-.127.1h-.159c-.1,0-.127-.064-.1-.127l.381-1.08-1.143-2.8c-.032-.1,0-.127.1-.127h.159c.064,0,.127.032.127.1l.953,2.319.826-2.287A.116.116,0,0,1,202.161,176.4Z" transform="translate(-177.737 -175.098)" fill="#caa14c"/>
        <path id="Trazado_269" data-name="Trazado 269" d="M227.1,172.827v.159a.116.116,0,0,1-.127.127H225.92v3.653a.116.116,0,0,1-.127.127H225.6a.116.116,0,0,1-.127-.127v-3.653h-1.048a.116.116,0,0,1-.127-.127v-.159a.116.116,0,0,1,.127-.127h2.509C227.031,172.7,227.1,172.732,227.1,172.827Z" transform="translate(-194.413 -172.573)" fill="#caa14c"/>
        <path id="Trazado_270" data-name="Trazado 270" d="M240.334,176.427v.127c0,.064-.032.127-.064.127a.873.873,0,0,0-.858.985v1.525a.116.116,0,0,1-.127.127h-.159a.116.116,0,0,1-.127-.127v-2.731a.116.116,0,0,1,.127-.127h.159a.116.116,0,0,1,.127.127v.349a.991.991,0,0,1,.826-.508C240.3,176.3,240.334,176.332,240.334,176.427Z" transform="translate(-204.444 -175.03)" fill="#caa14c"/>
        <path id="Trazado_271" data-name="Trazado 271" d="M252.082,177.376v1.81a.116.116,0,0,1-.127.127H251.8a.116.116,0,0,1-.127-.127v-.222a1.064,1.064,0,0,1-.921.413.957.957,0,1,1,0-1.906,1.131,1.131,0,0,1,.921.381v-.476a.751.751,0,0,0-1.461-.222c-.032.064-.064.127-.127.127h-.159a.116.116,0,0,1-.127-.127,1.032,1.032,0,0,1,1.112-.858A1.016,1.016,0,0,1,252.082,177.376Zm-.381,1.048c0-.349-.349-.572-.826-.572-.54,0-.762.254-.762.572,0,.349.222.572.762.572C251.352,179,251.7,178.742,251.7,178.424Z" transform="translate(-211.745 -175.026)" fill="#caa14c"/>
        <path id="Trazado_272" data-name="Trazado 272" d="M266.647,176.609l-1.016,2.732c-.032.064-.064.1-.127.1h-.286c-.064,0-.127-.032-.127-.1l-1.016-2.732c-.032-.1,0-.127.1-.127h.159c.063,0,.127.032.127.1l.889,2.446.889-2.446c.032-.064.064-.1.127-.1h.159C266.647,176.45,266.679,176.514,266.647,176.609Z" transform="translate(-221.546 -175.148)" fill="#caa14c"/>
        <path id="Trazado_273" data-name="Trazado 273" d="M281.617,177.756v.064a.137.137,0,0,1-.127.127h-2.446a1.112,1.112,0,0,0,1.969.572c.032-.064.064-.1.127-.1h.191c.1,0,.127.032.1.127a1.388,1.388,0,0,1-1.3.762,1.476,1.476,0,0,1-1.525-1.556,1.509,1.509,0,1,1,3.017,0Zm-2.541-.191h2.16a1.017,1.017,0,0,0-1.048-.985A1.062,1.062,0,0,0,279.076,177.566Z" transform="translate(-231.466 -174.961)" fill="#caa14c"/>
        <path id="Trazado_274" data-name="Trazado 274" d="M295.6,176.461v-4.034a.116.116,0,0,1,.127-.127h.159a.116.116,0,0,1,.127.127v4.034a.116.116,0,0,1-.127.127h-.159A.116.116,0,0,1,295.6,176.461Z" transform="translate(-243.067 -172.3)" fill="#caa14c"/>
        <path id="Trazado_275" data-name="Trazado 275" d="M305,176.461v-4.034a.116.116,0,0,1,.127-.127h.159a.116.116,0,0,1,.127.127v4.034a.116.116,0,0,1-.127.127h-.159A.116.116,0,0,1,305,176.461Z" transform="translate(-249.481 -172.3)" fill="#caa14c"/>
        <path id="Trazado_276" data-name="Trazado 276" d="M314.5,173.176v-.349a.116.116,0,0,1,.127-.127h.159a.116.116,0,0,1,.127.127v.349a.116.116,0,0,1-.127.127h-.159A.116.116,0,0,1,314.5,173.176Zm0,3.557V174a.116.116,0,0,1,.127-.127h.159a.116.116,0,0,1,.127.127v2.731a.116.116,0,0,1-.127.127h-.159A.116.116,0,0,1,314.5,176.734Z" transform="translate(-255.964 -172.573)" fill="#caa14c"/>
        <path id="Trazado_277" data-name="Trazado 277" d="M326.15,177.312v1.81a.116.116,0,0,1-.127.127h-.159a.116.116,0,0,1-.127-.127v-1.81a.66.66,0,0,0-.7-.731c-.413,0-.826.254-.826.985v1.556a.116.116,0,0,1-.127.127h-.159a.116.116,0,0,1-.127-.127v-2.732a.116.116,0,0,1,.127-.127h.159a.116.116,0,0,1,.127.127v.286a1.04,1.04,0,0,1,.921-.476A1.029,1.029,0,0,1,326.15,177.312Z" transform="translate(-262.31 -174.961)" fill="#caa14c"/>
        <path id="Trazado_278" data-name="Trazado 278" d="M341.781,176.322v2.732a1.368,1.368,0,0,1-1.493,1.366,1.343,1.343,0,0,1-1.4-.985c0-.1.032-.127.127-.127h.159c.063,0,.1.032.127.1a1.009,1.009,0,0,0,1.016.635c.731,0,1.112-.381,1.112-.985v-.476a1.336,1.336,0,0,1-1.207.635,1.557,1.557,0,0,1,0-3.113,1.4,1.4,0,0,1,1.207.635v-.476a.116.116,0,0,1,.127-.127h.159A.451.451,0,0,1,341.781,176.322Zm-.381,1.366a1.175,1.175,0,1,0-1.175,1.175A1.153,1.153,0,0,0,341.4,177.688Z" transform="translate(-272.477 -174.893)" fill="#caa14c"/>
      </g>
    </g>
  </g>
</svg>