<svg xmlns="http://www.w3.org/2000/svg" width="64.354" height="64.341" viewBox="0 0 64.354 64.341">
  <g id="Grupo_6" data-name="Grupo 6" transform="translate(-1667.853 -84.254)">
    <path id="Trazado_218" data-name="Trazado 218" d="M1688.964,133.979l-15-15-1.78,1.779,19.157,19.157,1.773-1.78-4.155-4.155Zm12.837,12.843-1.768-1.767-1.774,1.767,1.774,1.773Zm-27.833-32.962,1.779-1.779-1.773-1.78-1.78,1.78Zm23.5,28.627-1.78-1.78-1.78,1.774,1.78,1.779Zm5.128-52.118,1.78,1.779,1.781-1.779-1.781-1.78Zm1.78,10.462,2.562,2.567-6.9,6.9-6.909-6.9,8.683-8.683-1.78-1.779L1689.565,103.4l10.469,10.462L1710.5,103.4l-6.127-6.121-1.774,1.776Zm21.718,18.158-1.779,1.78,1.773,1.779,1.781-1.779Zm-23.5,23.5,1.774,1.773,19.15-19.15-1.773-1.773Zm27.833-27.839-1.779,1.773,1.779,1.78,1.78-1.78Zm-4.341-.788,1.781-1.779L1708.715,92.93l-1.779,1.78Zm-27.833-27.833,1.773,1.774,1.774-1.774-1.768-1.773Zm-.787,4.335-1.774-1.767-19.472,19.473,1.767,1.767Zm-27.84,27.84,1.78-1.78-1.773-1.773-1.78,1.773Z" fill="#caa14c" fill-rule="evenodd"/>
    <path id="Trazado_219" data-name="Trazado 219" d="M1710.76,117.73l-2.567,2.561-6.9-6.9,6.9-6.909,8.682,8.682,1.78-1.78-10.462-10.462-10.462,10.468,10.462,10.462,6.121-6.127-1.775-1.774Z" transform="translate(4.864 3.039)" fill="#caa14c" fill-rule="evenodd"/>
    <path id="Trazado_220" data-name="Trazado 220" d="M1692.646,127.158l-2.561-2.567,6.9-6.9,6.909,6.9-8.683,8.682,1.78,1.78,10.462-10.462-10.468-10.462-10.462,10.462,6.127,6.121,1.773-1.775Z" transform="translate(3.04 4.864)" fill="#caa14c" fill-rule="evenodd"/>
    <path id="Trazado_221" data-name="Trazado 221" d="M1683.217,109.042l2.568-2.561,6.9,6.9-6.9,6.909-8.682-8.682-1.78,1.78,10.462,10.462,10.462-10.468-10.462-10.462-6.121,6.127,1.776,1.774Z" transform="translate(1.216 3.039)" fill="#caa14c" fill-rule="evenodd"/>
  </g>
</svg>
