<svg xmlns="http://www.w3.org/2000/svg" width="196.871" height="76.357" viewBox="0 0 196.871 76.357">
  <g id="Grupo_19" data-name="Grupo 19" transform="translate(-242 601)">
    <g id="Recurso_2" data-name="Recurso 2" transform="translate(242 -601)">
      <g id="Grupo_15" data-name="Grupo 15" transform="translate(0 45.203)">
        <path id="Trazado_247" data-name="Trazado 247" d="M3.681,122.382l-2.254,2.5v6.279H.3V112.44H1.427v10.707l9.379-10.707,1.489-.04-7.849,8.936,7.688,9.741H10.765Z" transform="translate(-0.3 -112.36)" fill="#fff"/>
        <path id="Trazado_248" data-name="Trazado 248" d="M47.1,126.789l-1.771,4.428H44L51.889,112.5l7.93,18.717H58.45L56.6,126.789Zm.4-1.047h8.654l-4.307-10.224Z" transform="translate(-26.41 -112.42)" fill="#fff"/>
        <path id="Trazado_249" data-name="Trazado 249" d="M91.209,131.317,83.4,112.6h1.047l6.682,15.9,6-14.088,5.917,14.088,6.762-15.9h1.047l-7.809,18.717-5.917-14.33Z" transform="translate(-49.951 -112.479)" fill="#fff"/>
        <path id="Trazado_250" data-name="Trazado 250" d="M155,126.789l-1.771,4.428H151.9l7.889-18.717,7.93,18.717H166.35l-1.852-4.428Zm.443-1.047H164.1l-4.347-10.224Z" transform="translate(-90.879 -112.42)" fill="#fff"/>
        <path id="Trazado_251" data-name="Trazado 251" d="M217.533,131.217v-8.453H206.987v8.453H205.9V112.5h1.087v9.177h10.546V112.5h1.127v18.717Z" transform="translate(-123.143 -112.42)" fill="#fff"/>
        <path id="Trazado_252" data-name="Trazado 252" d="M259.93,131.337,252,112.7h1.167l6.762,15.9,6.8-15.9h1.127Z" transform="translate(-150.687 -112.539)" fill="#fff"/>
        <path id="Trazado_253" data-name="Trazado 253" d="M307.106,112.3v18.717H306.1V112.3Z" transform="translate(-183.01 -112.3)" fill="#fff"/>
        <path id="Trazado_254" data-name="Trazado 254" d="M324.167,112.7v17.63h8.574v1.047H323V112.7Z" transform="translate(-193.108 -112.539)" fill="#fff"/>
        <path id="Trazado_255" data-name="Trazado 255" d="M362.667,112.7v17.63h8.574v1.047H361.5V112.7Z" transform="translate(-216.111 -112.539)" fill="#fff"/>
        <path id="Trazado_256" data-name="Trazado 256" d="M403,126.789l-1.771,4.428H399.9l7.889-18.717,7.93,18.717H414.35l-1.852-4.428Zm.443-1.047H412.1l-4.307-10.224Z" transform="translate(-239.054 -112.42)" fill="#fff"/>
        <path id="Trazado_257" data-name="Trazado 257" d="M451.121,128.62l.6-.805c1.61,2.5,5.233,2.5,5.233,2.5A4.143,4.143,0,0,0,461.264,126c0-3.985-4.75-3.985-5.635-4.186-1.691-.282-4.629-1.127-4.629-4.387a4.937,4.937,0,0,1,5.112-4.83,6.379,6.379,0,0,1,4.267,1.57l-.523.926a5.73,5.73,0,0,0-3.7-1.489,3.954,3.954,0,0,0-4.146,3.824c0,1.892,1.691,3.18,3.7,3.381,2.9.282,6.6,1.369,6.6,5.313a5.26,5.26,0,0,1-5.354,5.152S452.892,131.277,451.121,128.62Z" transform="translate(-269.586 -112.479)" fill="#fff"/>
      </g>
      <g id="Grupo_16" data-name="Grupo 16" transform="translate(193.651 43.593)">
        <path id="Trazado_258" data-name="Trazado 258" d="M484.62,109.91a1.61,1.61,0,1,1-1.61-1.61A1.642,1.642,0,0,1,484.62,109.91Zm-.322,0a1.329,1.329,0,1,0-1.328,1.369A1.324,1.324,0,0,0,484.3,109.91Zm-.523.725c.04.081,0,.121-.08.121h-.322c-.04,0-.121-.04-.121-.081l-.242-.322h-.121v.282a.107.107,0,0,1-.121.121h-.322a.107.107,0,0,1-.121-.121v-1.449a.107.107,0,0,1,.121-.121h.684a.622.622,0,0,1,.644.564.6.6,0,0,1-.242.523Zm-.886-1.047v.322h.121c.121,0,.2-.04.2-.161s-.081-.161-.2-.161Z" transform="translate(-481.4 -108.3)" fill="#caa14c"/>
      </g>
      <g id="Grupo_17" data-name="Grupo 17" transform="translate(76.478)">
        <path id="Trazado_259" data-name="Trazado 259" d="M203.3,30.591l-9.218-9.218L193,22.46l11.794,11.794,1.087-1.087L203.3,30.591Zm7.889,7.93L210.1,37.434l-1.087,1.087,1.087,1.087ZM194.043,18.234l1.087-1.087-1.087-1.087-1.087,1.087Zm14.491,17.59-1.087-1.087-1.087,1.087,1.087,1.087Zm3.14-32.081L212.76,4.83l1.087-1.087L212.76,2.657Zm1.087,6.44,1.57,1.57-4.267,4.267L205.8,11.753l5.394-5.313L210.1,5.353l-6.44,6.44,6.44,6.44,6.44-6.44L212.76,8.01,211.674,9.1Zm13.364,11.19-1.087,1.087,1.087,1.087,1.087-1.087Zm-14.45,14.45,1.087,1.087,11.794-11.794-1.087-1.087Zm17.147-17.107L227.734,19.8l1.087,1.087,1.087-1.087Zm-2.7-.483,1.087-1.087L215.417,5.353,214.33,6.44ZM209.017,1.087,210.1,2.174l1.087-1.087L210.1,0Zm-.483,2.657-1.087-1.087L195.452,14.652l1.087,1.087ZM191.387,20.891l1.087-1.087-1.087-1.087L190.3,19.8Z" transform="translate(-190.3)" fill="#caa14c" fill-rule="evenodd"/>
        <path id="Trazado_260" data-name="Trazado 260" d="M251.41,42.3l-1.57,1.61-4.267-4.267,4.267-4.267,5.354,5.353,1.087-1.087-6.44-6.44-6.44,6.44,6.44,6.44,3.784-3.784L252.5,41.21Z" transform="translate(-222.026 -19.836)" fill="#caa14c" fill-rule="evenodd"/>
        <path id="Trazado_261" data-name="Trazado 261" d="M227.243,61.11l-1.57-1.57,4.267-4.226,4.226,4.226-5.313,5.353,1.087,1.087,6.44-6.44-6.44-6.44-6.44,6.44,3.743,3.784,1.127-1.087Z" transform="translate(-210.136 -31.726)" fill="#caa14c" fill-rule="evenodd"/>
        <path id="Trazado_262" data-name="Trazado 262" d="M208.43,36.943l1.61-1.57,4.226,4.267-4.226,4.267-5.353-5.353L203.6,39.64l6.44,6.44,6.4-6.44-6.4-6.44-3.784,3.784,1.087,1.087Z" transform="translate(-198.247 -19.836)" fill="#caa14c" fill-rule="evenodd"/>
      </g>
      <g id="Grupo_18" data-name="Grupo 18" transform="translate(52.287 69.354)">
        <path id="Trazado_263" data-name="Trazado 263" d="M133.179,177.611v.2a.147.147,0,0,1-.161.161h-2.657a.147.147,0,0,1-.161-.161v-4.951a.147.147,0,0,1,.161-.161h.241a.147.147,0,0,1,.161.161v4.629h2.254C133.138,177.45,133.179,177.53,133.179,177.611Z" transform="translate(-130.2 -172.539)" fill="#caa14c"/>
        <path id="Trazado_264" data-name="Trazado 264" d="M147.479,176.561v3.462a.147.147,0,0,1-.161.161h-.2a.147.147,0,0,1-.161-.161v-.362a1.318,1.318,0,0,1-1.167.6,1.3,1.3,0,0,1-1.288-1.409v-2.294a.147.147,0,0,1,.161-.161h.2a.147.147,0,0,1,.161.161v2.294a.836.836,0,0,0,.886.926c.523,0,1.047-.322,1.047-1.248v-1.972a.147.147,0,0,1,.161-.161h.2A.173.173,0,0,1,147.479,176.561Z" transform="translate(-138.744 -174.75)" fill="#caa14c"/>
        <path id="Trazado_265" data-name="Trazado 265" d="M162.194,180.3h-.2a.209.209,0,0,1-.161-.081l-.926-1.449-.926,1.449a.161.161,0,0,1-.161.081h-.2c-.121,0-.161-.081-.081-.161l1.167-1.771-1.047-1.61c-.08-.081-.04-.161.081-.161h.2a.209.209,0,0,1,.161.08l.845,1.288.845-1.288a.161.161,0,0,1,.161-.08h.2c.121,0,.161.08.08.161l-1.047,1.61,1.167,1.771A.147.147,0,0,1,162.194,180.3Z" transform="translate(-147.704 -174.869)" fill="#caa14c"/>
        <path id="Trazado_266" data-name="Trazado 266" d="M176.779,176.561v3.462a.147.147,0,0,1-.161.161h-.2a.147.147,0,0,1-.161-.161v-.362a1.318,1.318,0,0,1-1.167.6,1.3,1.3,0,0,1-1.288-1.409v-2.294a.147.147,0,0,1,.161-.161h.2a.147.147,0,0,1,.161.161v2.294a.836.836,0,0,0,.885.926c.523,0,1.047-.322,1.047-1.248v-1.972a.147.147,0,0,1,.161-.161h.2A.173.173,0,0,1,176.779,176.561Z" transform="translate(-156.25 -174.75)" fill="#caa14c"/>
        <path id="Trazado_267" data-name="Trazado 267" d="M190.991,176.461v.161c0,.081-.04.161-.08.161a1.106,1.106,0,0,0-1.087,1.248v1.932a.147.147,0,0,1-.161.161h-.2a.147.147,0,0,1-.161-.161V176.5a.147.147,0,0,1,.161-.161h.2a.147.147,0,0,1,.161.161v.443a1.256,1.256,0,0,1,1.047-.644C190.95,176.3,190.991,176.34,190.991,176.461Z" transform="translate(-165.511 -174.69)" fill="#caa14c"/>
        <path id="Trazado_268" data-name="Trazado 268" d="M202.776,176.4h.2c.121,0,.161.081.121.161l-1.771,4.951c-.04.08-.081.121-.161.121h-.2c-.121,0-.161-.081-.121-.161l.483-1.369-1.449-3.542c-.04-.121,0-.161.121-.161h.2c.08,0,.161.04.161.121l1.207,2.938,1.047-2.9A.147.147,0,0,1,202.776,176.4Z" transform="translate(-171.822 -174.75)" fill="#caa14c"/>
        <path id="Trazado_269" data-name="Trazado 269" d="M227.842,172.861v.2a.147.147,0,0,1-.161.161h-1.328v4.629a.147.147,0,0,1-.161.161h-.242a.147.147,0,0,1-.161-.161v-4.629h-1.328a.147.147,0,0,1-.161-.161v-.2a.147.147,0,0,1,.161-.161h3.18C227.762,172.7,227.842,172.74,227.842,172.861Z" transform="translate(-186.423 -172.539)" fill="#caa14c"/>
        <path id="Trazado_270" data-name="Trazado 270" d="M240.691,176.461v.161c0,.081-.04.161-.08.161a1.106,1.106,0,0,0-1.087,1.248v1.932a.147.147,0,0,1-.161.161h-.2a.147.147,0,0,1-.161-.161V176.5a.147.147,0,0,1,.161-.161h.2a.147.147,0,0,1,.161.161v.443a1.256,1.256,0,0,1,1.047-.644C240.65,176.3,240.691,176.34,240.691,176.461Z" transform="translate(-195.206 -174.69)" fill="#caa14c"/>
        <path id="Trazado_271" data-name="Trazado 271" d="M252.719,177.665v2.294a.147.147,0,0,1-.161.161h-.2a.147.147,0,0,1-.161-.161v-.282a1.349,1.349,0,0,1-1.167.523,1.213,1.213,0,1,1,0-2.415,1.433,1.433,0,0,1,1.167.483v-.6a.951.951,0,0,0-1.852-.282c-.04.08-.081.161-.161.161h-.2a.147.147,0,0,1-.161-.161,1.308,1.308,0,0,1,1.409-1.087A1.287,1.287,0,0,1,252.719,177.665Zm-.483,1.328c0-.443-.443-.725-1.047-.725-.684,0-.966.322-.966.725,0,.443.282.724.966.724C251.793,179.718,252.236,179.4,252.236,178.994Z" transform="translate(-201.599 -174.687)" fill="#caa14c"/>
        <path id="Trazado_272" data-name="Trazado 272" d="M267.338,176.645l-1.288,3.462c-.04.08-.081.121-.161.121h-.362c-.081,0-.161-.04-.161-.121l-1.288-3.462c-.04-.121,0-.161.121-.161h.2c.08,0,.161.04.161.121l1.127,3.1,1.127-3.1c.04-.08.081-.121.161-.121h.2C267.338,176.444,267.378,176.525,267.338,176.645Z" transform="translate(-210.181 -174.794)" fill="#caa14c"/>
        <path id="Trazado_273" data-name="Trazado 273" d="M282.424,178.172v.081a.173.173,0,0,1-.161.161h-3.1a1.409,1.409,0,0,0,2.5.725c.04-.08.081-.121.161-.121h.241c.121,0,.161.04.121.161a1.759,1.759,0,0,1-1.65.966,1.87,1.87,0,0,1-1.932-1.972,1.913,1.913,0,1,1,3.824,0Zm-3.22-.242h2.737a1.289,1.289,0,0,0-1.328-1.248A1.346,1.346,0,0,0,279.2,177.931Z" transform="translate(-218.867 -174.63)" fill="#caa14c"/>
        <path id="Trazado_274" data-name="Trazado 274" d="M295.6,177.573v-5.112a.147.147,0,0,1,.161-.161h.2a.147.147,0,0,1,.161.161v5.112a.147.147,0,0,1-.161.161h-.2A.147.147,0,0,1,295.6,177.573Z" transform="translate(-229.024 -172.3)" fill="#caa14c"/>
        <path id="Trazado_275" data-name="Trazado 275" d="M305,177.573v-5.112a.147.147,0,0,1,.161-.161h.2a.147.147,0,0,1,.161.161v5.112a.147.147,0,0,1-.161.161h-.2A.147.147,0,0,1,305,177.573Z" transform="translate(-234.64 -172.3)" fill="#caa14c"/>
        <path id="Trazado_276" data-name="Trazado 276" d="M314.5,173.3v-.443a.147.147,0,0,1,.161-.161h.2a.147.147,0,0,1,.161.161v.443a.147.147,0,0,1-.161.161h-.2A.147.147,0,0,1,314.5,173.3Zm0,4.508V174.35a.147.147,0,0,1,.161-.161h.2a.147.147,0,0,1,.161.161v3.462a.147.147,0,0,1-.161.161h-.2A.147.147,0,0,1,314.5,177.812Z" transform="translate(-240.316 -172.539)" fill="#caa14c"/>
        <path id="Trazado_277" data-name="Trazado 277" d="M326.779,177.609V179.9a.147.147,0,0,1-.161.161h-.2a.147.147,0,0,1-.161-.161v-2.294a.836.836,0,0,0-.886-.926c-.523,0-1.047.322-1.047,1.248V179.9a.147.147,0,0,1-.161.161h-.2a.147.147,0,0,1-.161-.161v-3.462a.147.147,0,0,1,.161-.161h.2a.147.147,0,0,1,.161.161v.362a1.319,1.319,0,0,1,1.167-.6A1.3,1.3,0,0,1,326.779,177.609Z" transform="translate(-245.873 -174.63)" fill="#caa14c"/>
        <path id="Trazado_278" data-name="Trazado 278" d="M342.6,176.382v3.462a1.734,1.734,0,0,1-1.892,1.731,1.7,1.7,0,0,1-1.771-1.248c0-.121.04-.161.161-.161h.2c.08,0,.121.04.161.121a1.278,1.278,0,0,0,1.288.805c.926,0,1.409-.483,1.409-1.248v-.6a1.693,1.693,0,0,1-1.53.805,1.973,1.973,0,0,1,0-3.945,1.78,1.78,0,0,1,1.53.805v-.6a.147.147,0,0,1,.161-.161h.2A.571.571,0,0,1,342.6,176.382Zm-.483,1.731a1.489,1.489,0,1,0-1.489,1.489A1.461,1.461,0,0,0,342.121,178.113Z" transform="translate(-254.775 -174.57)" fill="#caa14c"/>
      </g>
    </g>
  </g>
</svg>